<svg width="138" height="33" viewBox="0 0 138 33" fill="none" xmlns="http://www.w3.org/2000/svg">
<path d="M7.30628 12.0869C7.30628 12.0869 16.0504 12.9685 16.7197 1C16.7197 1 16.6348 10.8824 25.5595 12.0533C25.5595 12.0533 17.3147 12.5176 16.9854 22.9081C16.9747 22.9182 17.0456 13.0964 7.30273 12.0869H7.30628Z" fill="#F0FF27" stroke="black" stroke-linejoin="round"/>
<g clip-path="url(#clip0_651_158)">
<path d="M32.8623 22.5105L52.7251 12.5885V11.6969H32.8623V4.64648H65.1232V15.2221L45.3004 25.0634V25.9535H65.2046V33.004H32.8623V22.5105Z" fill="white"/>
<path d="M90.1887 19.2708V18.2984C95.6518 18.2984 99.2835 16.0187 99.2835 12.0323C99.2835 6.78706 95.4447 4.65283 88.557 4.65283H67.3066V33.0015H88.557C95.9802 33.0015 99.2835 30.337 99.2835 26.1611C99.2835 21.8221 96.6341 19.2708 90.1887 19.2708ZM84.5185 26.5606H78.1145V21.8221H84.5185C86.5895 21.8221 87.6591 22.7563 87.6591 24.1723C87.6591 26.0039 86.412 26.5606 84.5185 26.5606ZM84.5185 15.7881H78.1145V11.0878H84.5185C86.1798 11.0878 87.6591 11.4991 87.6591 13.4761C87.6591 15.3592 85.9549 15.7881 84.5185 15.7881Z" fill="white"/>
<path d="M100.785 4.65137H120.322C132.185 4.65137 137.533 10.4812 137.533 18.8257C137.533 27.5903 131.105 33 120.322 33H100.785V4.65137ZM125.991 18.8257C125.991 13.8213 122.494 11.9412 119.098 11.9412H112.083V25.7101H119.098C122.453 25.7101 125.991 23.83 125.991 18.8257Z" fill="white"/>
</g>
<path d="M5.01957 22.9082L6.15074 25.1384C6.50423 25.8463 7.06982 26.4127 7.81215 26.8021L10.0391 27.9349L7.81215 29.0677C7.10517 29.4217 6.53958 29.988 6.15074 30.7314L5.01957 32.9616L3.8884 30.7314C3.53491 30.0234 2.96932 29.4571 2.22699 29.0677L0 27.9349L2.22699 26.8021C2.93397 26.4481 3.49956 25.8817 3.8884 25.1384L5.01957 22.9082Z" fill="#916EF7"/>
<defs>
<clipPath id="clip0_651_158">
<rect width="104.672" height="28.3487" fill="white" transform="translate(32.8623 4.65137)"/>
</clipPath>
</defs>
</svg>
